<svg xmlns="http://www.w3.org/2000/svg" height="48" width="48">
 <path fill="#4E4E50" d="m9.8548 23.792c1.9493.89478 3.4193 2.8761 3.4193 5.0491.35152 2.7163-.15978 5.4965.38348 8.2128.86282 1.7256 3.1956.89478 4.5698 1.7576 1.5659.76695 1.5339 3.2276-.19174 3.7708-1.7896.70304-3.7708.25565-5.5604-.15978-2.269-.640-4.5056-2.301-4.7932-4.794-.5752-2.844.0320-5.752-.5113-8.564-.7030-2.046-3.0039-2.876-5.0171-2.972-1.8535-.320-2.6524-3.004-1.1185-4.155 1.6298-1.118 4.0265-.447 5.4006-2.109 1.4061-1.5339.92673-3.7708 1.0226-5.6882 0-2.5885-.063913-5.6563 2.0772-7.4778 2.1091-1.7256 5.0491-2.2689 7.7015-2.0132 2.0132 0 3.1317 2.7802 1.2783 3.8987-1.4061 1.1824-3.8348.19174-4.8254 2.0772-.44739 1.7896-.15978 3.675-.22370 5.5284-.03195 2.3967-.15978 5.2408-2.3009 6.8067-.38348.31956-.83086.60717-1.2783.83087"/>
 <path fill="#4E4E50" d="m38.52 23.792c-2.141-.959-3.452-3.26-3.452-5.592-.223-2.429.096-4.858-.191-7.287-.767-1.853-3.132-1.2778-4.666-1.885-1.885-.7669-1.534-3.7708.447-4.1863 2.3328-.47935 4.8573-.031957 6.9664 1.0226 1.7896.89478 3.0359 2.7482 3.1637 4.7295.41543 2.6524-.09587 5.3687.41543 7.9891.63913 2.173 3.0039 2.6524 4.9213 2.8761 1.7896.22370 2.7482 2.5565 1.47 3.8667-1.4061 1.47-3.8348.63913-5.2728 2.1091-1.6298 1.47-1.2783 3.8667-1.2783 5.848-.09587 2.4926.19174 5.4006-1.6617 7.35-2.3648 2.0772-5.7521 2.7482-8.788 2.173-1.6617-.51130-2.205-3.2276-.47934-3.9945 1.4061-0.735 3.2595-.25565 4.5058-1.438.83086-1.438.28761-3.1317.44739-4.6976.03195-2.4287-.22370-5.2089 1.3741-7.2221.57521-.67108 1.3422-1.1824 2.1091-1.6298"/>
</svg>
